<svg xmlns="http://www.w3.org/2000/svg" width="24" height="32" viewBox="0 0 24 32">
  <g id="ic-contact-mail" transform="translate(-3.039 8.403)">
    <g id="Password" transform="translate(-1.961 -9.403)">
      <g id="Group_278" data-name="Group 278">
        <path id="Path_82" data-name="Path 82" d="M17,1a8.963,8.963,0,0,0-9,9v4a2.946,2.946,0,0,0-3,3V30a2.946,2.946,0,0,0,3,3H26a2.946,2.946,0,0,0,3-3V17a2.946,2.946,0,0,0-3-3V10A8.963,8.963,0,0,0,17,1ZM27,17V30a.945.945,0,0,1-1,1H8a.945.945,0,0,1-1-1V17a.945.945,0,0,1,1-1H26A.945.945,0,0,1,27,17ZM10,14V10a7,7,0,0,1,14,0v4Z" fill="#fff"/>
        <path id="Path_83" data-name="Path 83" d="M17,19a2.946,2.946,0,0,0-3,3,2.913,2.913,0,0,0,2,2.8V27a1,1,0,0,0,2,0V24.8A2.913,2.913,0,0,0,20,22,2.946,2.946,0,0,0,17,19Zm0,4a1,1,0,1,1,1-1A.945.945,0,0,1,17,23Z" fill="#fff"/>
      </g>
    </g>
  </g>
</svg>
