<svg xmlns="http://www.w3.org/2000/svg" width="27.778" height="27.883" viewBox="0 0 27.778 27.883">
  <path id="Path_84" data-name="Path 84" d="M6.541,18.535a29.581,29.581,0,0,0,9.839,7.707,15.314,15.314,0,0,0,5.506,1.629c.133.006.26.012.393.012a4.56,4.56,0,0,0,3.536-1.52.126.126,0,0,0,.023-.029,14.888,14.888,0,0,1,1.115-1.156c.272-.26.549-.532.815-.809a2.79,2.79,0,0,0-.012-4.154l-3.472-3.472a2.811,2.811,0,0,0-2.034-.936,2.905,2.905,0,0,0-2.057.93l-2.068,2.068c-.191-.11-.387-.208-.572-.3a7.144,7.144,0,0,1-.636-.347A21.891,21.891,0,0,1,11.689,13.4a12.606,12.606,0,0,1-1.768-2.82c.543-.491,1.052-1.005,1.543-1.508.173-.179.352-.358.532-.537a2.962,2.962,0,0,0,.959-2.08,2.939,2.939,0,0,0-.959-2.08L10.273,2.652c-.2-.2-.393-.4-.589-.6C9.3,1.658,8.9,1.254,8.511.89A2.88,2.88,0,0,0,6.477,0,2.965,2.965,0,0,0,4.42.9L2.259,3.056A4.44,4.44,0,0,0,.936,5.9a10.693,10.693,0,0,0,.8,4.622A26.89,26.89,0,0,0,6.541,18.535ZM2.346,6.02a3.056,3.056,0,0,1,.919-1.964L5.414,1.907a1.556,1.556,0,0,1,1.063-.491,1.476,1.476,0,0,1,1.04.5c.387.358.751.734,1.144,1.132.2.2.4.4.6.612l1.722,1.722a1.569,1.569,0,0,1,.543,1.08,1.569,1.569,0,0,1-.543,1.08c-.179.179-.358.364-.537.543-.537.543-1.04,1.057-1.595,1.548l-.029.029a1.13,1.13,0,0,0-.289,1.283c.006.017.012.029.017.046a13.6,13.6,0,0,0,2.028,3.3,23.1,23.1,0,0,0,5.57,5.073,8.271,8.271,0,0,0,.763.416,7.144,7.144,0,0,1,.636.347c.023.012.04.023.064.035a1.208,1.208,0,0,0,.56.144,1.225,1.225,0,0,0,.861-.393l2.161-2.161a1.529,1.529,0,0,1,1.057-.514,1.451,1.451,0,0,1,1.023.514l3.484,3.478a1.393,1.393,0,0,1-.017,2.178c-.243.26-.5.508-.768.768a16.639,16.639,0,0,0-1.208,1.254,3.172,3.172,0,0,1-2.479,1.052c-.1,0-.2-.006-.3-.012A13.912,13.912,0,0,1,17,24.983a28.1,28.1,0,0,1-9.366-7.338,25.739,25.739,0,0,1-4.564-7.6A9.319,9.319,0,0,1,2.346,6.02Z" transform="translate(-0.912 0)" fill="#fff"/>
</svg>
